<svg version="1.1" xmlns="http://www.w3.org/2000/svg" xmlns:xlink="http://www.w3.org/1999/xlink" width="1328" height="516"><defs/><g><g transform="translate(-10,-10) scale(1,1)"><rect fill="#C0C0C0" stroke="none" x="190.25" y="121.5" width="82" height="44" opacity="0.2"/></g><g transform="translate(-10,-10) scale(1,1)"><rect fill="#ffffff" stroke="none" x="183.25" y="114.5" width="82" height="44"/></g><g transform="translate(-10,-10) scale(1,1)"><path fill="none" stroke="#000000" d="M 183.25 114.5 L 265.25 114.5 L 265.25 158.5 L 183.25 158.5 L 183.25 114.5 Z Z" stroke-miterlimit="10"/></g><g transform="translate(-10,-10) scale(1,1)"><path fill="none" stroke="#000000" d="M 183.25 139.5 L 265.25 139.5" stroke-miterlimit="10"/></g><g transform="translate(-10,-10) scale(1,1)"><path fill="none" stroke="#000000" d="M 183.25 149.5 L 265.25 149.5" stroke-miterlimit="10"/></g><g transform="translate(-10,-10) scale(1,1)"><g><path fill="none" stroke="none"/><text fill="#000000" stroke="none" font-family="Arial" font-size="13px" font-style="normal" font-weight="bold" text-decoration="none" x="189.25" y="134">NewsServer</text></g></g><g transform="translate(-10,-10) scale(1,1)"><rect fill="#C0C0C0" stroke="none" x="577.5" y="27" width="103" height="57" opacity="0.2"/></g><g transform="translate(-10,-10) scale(1,1)"><rect fill="#ffffff" stroke="none" x="570.5" y="20" width="103" height="57"/></g><g transform="translate(-10,-10) scale(1,1)"><path fill="none" stroke="#000000" d="M 570.5 20 L 673.5 20 L 673.5 77 L 570.5 77 L 570.5 20 Z Z" stroke-miterlimit="10"/></g><g transform="translate(-10,-10) scale(1,1)"><path fill="none" stroke="#000000" d="M 570.5 58 L 673.5 58" stroke-miterlimit="10"/></g><g transform="translate(-10,-10) scale(1,1)"><path fill="none" stroke="#000000" d="M 570.5 68 L 673.5 68" stroke-miterlimit="10"/></g><g transform="translate(-10,-10) scale(1,1)"><g><path fill="none" stroke="none"/><text fill="#000000" stroke="none" font-family="Arial" font-size="13px" font-style="normal" font-weight="normal" text-decoration="none" x="590" y="37.5">«interface»</text></g></g><g transform="translate(-10,-10) scale(1,1)"><g><path fill="none" stroke="none"/><text fill="#000000" stroke="none" font-family="Arial" font-size="13px" font-style="normal" font-weight="bold" text-decoration="none" x="592.5" y="52.5">IDatabase</text></g></g><g transform="translate(-10,-10) scale(1,1)"><rect fill="#C0C0C0" stroke="none" x="327" y="95" width="127" height="44" opacity="0.2"/></g><g transform="translate(-10,-10) scale(1,1)"><rect fill="#ffffff" stroke="none" x="320" y="88" width="127" height="44"/></g><g transform="translate(-10,-10) scale(1,1)"><path fill="none" stroke="#000000" d="M 320 88 L 447 88 L 447 132 L 320 132 L 320 88 Z Z" stroke-miterlimit="10"/></g><g transform="translate(-10,-10) scale(1,1)"><path fill="none" stroke="#000000" d="M 320 113 L 447 113" stroke-miterlimit="10"/></g><g transform="translate(-10,-10) scale(1,1)"><path fill="none" stroke="#000000" d="M 320 123 L 447 123" stroke-miterlimit="10"/></g><g transform="translate(-10,-10) scale(1,1)"><g><path fill="none" stroke="none"/><text fill="#000000" stroke="none" font-family="Arial" font-size="13px" font-style="normal" font-weight="bold" text-decoration="none" x="327" y="107.5">InMemoryDatabase</text></g></g><g transform="translate(-10,-10) scale(1,1)"><path fill="none" stroke="#000000" d="M 383 88 L 383 85 M 383 85 A 8 8 0 0 1 391 77 L 571 77" stroke-miterlimit="10"/></g><g transform="translate(-10,-10) scale(1,1)"><path fill="#FFFFFF" stroke="none" d="M 550.6746502847517 85.41903551203198 L 571 77 L 550.6746502847517 68.58096448796803"/></g><g transform="translate(-10,-10) scale(1,1)"><path fill="none" stroke="#000000" d="M 550.6746502847517 85.41903551203198 L 571 77 L 550.6746502847517 68.58096448796803 L 550.6746502847517 85.41903551203198" stroke-miterlimit="10"/></g><g transform="translate(-10,-10) scale(1,1)"><rect fill="#C0C0C0" stroke="none" x="495" y="135" width="101" height="44" opacity="0.2"/></g><g transform="translate(-10,-10) scale(1,1)"><rect fill="#ffffff" stroke="none" x="488" y="128" width="101" height="44"/></g><g transform="translate(-10,-10) scale(1,1)"><path fill="none" stroke="#000000" d="M 488 128 L 589 128 L 589 172 L 488 172 L 488 128 Z Z" stroke-miterlimit="10"/></g><g transform="translate(-10,-10) scale(1,1)"><path fill="none" stroke="#000000" d="M 488 153 L 589 153" stroke-miterlimit="10"/></g><g transform="translate(-10,-10) scale(1,1)"><path fill="none" stroke="#000000" d="M 488 163 L 589 163" stroke-miterlimit="10"/></g><g transform="translate(-10,-10) scale(1,1)"><g><path fill="none" stroke="none"/><text fill="#000000" stroke="none" font-family="Arial" font-size="13px" font-style="normal" font-weight="bold" text-decoration="none" x="494.5" y="147.5">SqliteDatabase</text></g></g><g transform="translate(-10,-10) scale(1,1)"><path fill="none" stroke="#000000" d="M 538 128 L 538 93 L 592 93 L 592 77" stroke-miterlimit="10"/></g><g transform="translate(-10,-10) scale(1,1)"><path fill="#FFFFFF" stroke="none" d="M 600.419035512032 97.32534971524831 L 592 77 L 583.580964487968 97.32534971524831"/></g><g transform="translate(-10,-10) scale(1,1)"><path fill="none" stroke="#000000" d="M 600.419035512032 97.32534971524831 L 592 77 L 583.580964487968 97.32534971524831 L 600.419035512032 97.32534971524831" stroke-miterlimit="10"/></g><g transform="translate(-10,-10) scale(1,1)"><rect fill="#C0C0C0" stroke="none" x="907.75" y="115" width="83" height="57" opacity="0.2"/></g><g transform="translate(-10,-10) scale(1,1)"><rect fill="#ffffff" stroke="none" x="900.75" y="108" width="83" height="57"/></g><g transform="translate(-10,-10) scale(1,1)"><path fill="none" stroke="#000000" d="M 900.75 108 L 983.75 108 L 983.75 165 L 900.75 165 L 900.75 108 Z Z" stroke-miterlimit="10"/></g><g transform="translate(-10,-10) scale(1,1)"><path fill="none" stroke="#000000" d="M 900.75 146 L 983.75 146" stroke-miterlimit="10"/></g><g transform="translate(-10,-10) scale(1,1)"><path fill="none" stroke="#000000" d="M 900.75 156 L 983.75 156" stroke-miterlimit="10"/></g><g transform="translate(-10,-10) scale(1,1)"><g><path fill="none" stroke="none"/><text fill="#000000" stroke="none" font-family="Arial" font-size="13px" font-style="normal" font-weight="normal" text-decoration="none" x="910.25" y="125.5">«interface»</text></g></g><g transform="translate(-10,-10) scale(1,1)"><g><path fill="none" stroke="none"/><text fill="#000000" stroke="none" font-family="Arial" font-size="13px" font-style="normal" font-weight="bold" text-decoration="none" x="908.25" y="140.5">INewsgroup</text></g></g><g transform="translate(-10,-10) scale(1,1)"><rect fill="#C0C0C0" stroke="none" x="1130.25" y="203" width="73" height="57" opacity="0.2"/></g><g transform="translate(-10,-10) scale(1,1)"><rect fill="#ffffff" stroke="none" x="1123.25" y="196" width="73" height="57"/></g><g transform="translate(-10,-10) scale(1,1)"><path fill="none" stroke="#000000" d="M 1123.25 196 L 1196.25 196 L 1196.25 253 L 1123.25 253 L 1123.25 196 Z Z" stroke-miterlimit="10"/></g><g transform="translate(-10,-10) scale(1,1)"><path fill="none" stroke="#000000" d="M 1123.25 234 L 1196.25 234" stroke-miterlimit="10"/></g><g transform="translate(-10,-10) scale(1,1)"><path fill="none" stroke="#000000" d="M 1123.25 244 L 1196.25 244" stroke-miterlimit="10"/></g><g transform="translate(-10,-10) scale(1,1)"><g><path fill="none" stroke="none"/><text fill="#000000" stroke="none" font-family="Arial" font-size="13px" font-style="normal" font-weight="normal" text-decoration="none" x="1127.75" y="213.5">«interface»</text></g></g><g transform="translate(-10,-10) scale(1,1)"><g><path fill="none" stroke="none"/><text fill="#000000" stroke="none" font-family="Arial" font-size="13px" font-style="normal" font-weight="bold" text-decoration="none" x="1139.25" y="228.5">IArticle</text></g></g><g transform="translate(-10,-10) scale(1,1)"><rect fill="#C0C0C0" stroke="none" x="655.25" y="159" width="141" height="44" opacity="0.2"/></g><g transform="translate(-10,-10) scale(1,1)"><rect fill="#ffffff" stroke="none" x="648.25" y="152" width="141" height="44"/></g><g transform="translate(-10,-10) scale(1,1)"><path fill="none" stroke="#000000" d="M 648.25 152 L 789.25 152 L 789.25 196 L 648.25 196 L 648.25 152 Z Z" stroke-miterlimit="10"/></g><g transform="translate(-10,-10) scale(1,1)"><path fill="none" stroke="#000000" d="M 648.25 177 L 789.25 177" stroke-miterlimit="10"/></g><g transform="translate(-10,-10) scale(1,1)"><path fill="none" stroke="#000000" d="M 648.25 187 L 789.25 187" stroke-miterlimit="10"/></g><g transform="translate(-10,-10) scale(1,1)"><g><path fill="none" stroke="none"/><text fill="#000000" stroke="none" font-family="Arial" font-size="13px" font-style="normal" font-weight="bold" text-decoration="none" x="657.75" y="171.5">InMemoryNewsgroup</text></g></g><g transform="translate(-10,-10) scale(1,1)"><path fill="none" stroke="#000000" d="M 719 152 L 719 144 M 719 144 A 8 8 0 0 1 727 136 L 901 136" stroke-miterlimit="10"/></g><g transform="translate(-10,-10) scale(1,1)"><path fill="#FFFFFF" stroke="none" d="M 880.6746502847517 144.41903551203197 L 901 136 L 880.6746502847517 127.58096448796803"/></g><g transform="translate(-10,-10) scale(1,1)"><path fill="none" stroke="#000000" d="M 880.6746502847517 144.41903551203197 L 901 136 L 880.6746502847517 127.58096448796803 L 880.6746502847517 144.41903551203197" stroke-miterlimit="10"/></g><g transform="translate(-10,-10) scale(1,1)"><rect fill="#C0C0C0" stroke="none" x="807" y="215" width="115" height="44" opacity="0.2"/></g><g transform="translate(-10,-10) scale(1,1)"><rect fill="#ffffff" stroke="none" x="800" y="208" width="115" height="44"/></g><g transform="translate(-10,-10) scale(1,1)"><path fill="none" stroke="#000000" d="M 800 208 L 915 208 L 915 252 L 800 252 L 800 208 Z Z" stroke-miterlimit="10"/></g><g transform="translate(-10,-10) scale(1,1)"><path fill="none" stroke="#000000" d="M 800 233 L 915 233" stroke-miterlimit="10"/></g><g transform="translate(-10,-10) scale(1,1)"><path fill="none" stroke="#000000" d="M 800 243 L 915 243" stroke-miterlimit="10"/></g><g transform="translate(-10,-10) scale(1,1)"><g><path fill="none" stroke="none"/><text fill="#000000" stroke="none" font-family="Arial" font-size="13px" font-style="normal" font-weight="bold" text-decoration="none" x="809" y="227.5">SqliteNewsgroup</text></g></g><g transform="translate(-10,-10) scale(1,1)"><path fill="none" stroke="#000000" d="M 856 208 L 856 200 M 856 200 A 8 8 0 0 1 864 192 L 904 192 M 904 192 A 8 8 0 0 0 912 184 L 912 165" stroke-miterlimit="10"/></g><g transform="translate(-10,-10) scale(1,1)"><path fill="#FFFFFF" stroke="none" d="M 920.419035512032 185.3253497152483 L 912 165 L 903.580964487968 185.3253497152483"/></g><g transform="translate(-10,-10) scale(1,1)"><path fill="none" stroke="#000000" d="M 920.419035512032 185.3253497152483 L 912 165 L 903.580964487968 185.3253497152483 L 920.419035512032 185.3253497152483" stroke-miterlimit="10"/></g><g transform="translate(-10,-10) scale(1,1)"><rect fill="#C0C0C0" stroke="none" x="975" y="311" width="111" height="44" opacity="0.2"/></g><g transform="translate(-10,-10) scale(1,1)"><rect fill="#ffffff" stroke="none" x="968" y="304" width="111" height="44"/></g><g transform="translate(-10,-10) scale(1,1)"><path fill="none" stroke="#000000" d="M 968 304 L 1079 304 L 1079 348 L 968 348 L 968 304 Z Z" stroke-miterlimit="10"/></g><g transform="translate(-10,-10) scale(1,1)"><path fill="none" stroke="#000000" d="M 968 329 L 1079 329" stroke-miterlimit="10"/></g><g transform="translate(-10,-10) scale(1,1)"><path fill="none" stroke="#000000" d="M 968 339 L 1079 339" stroke-miterlimit="10"/></g><g transform="translate(-10,-10) scale(1,1)"><g><path fill="none" stroke="none"/><text fill="#000000" stroke="none" font-family="Arial" font-size="13px" font-style="normal" font-weight="bold" text-decoration="none" x="976" y="323.5">InMemoryArticle</text></g></g><g transform="translate(-10,-10) scale(1,1)"><path fill="none" stroke="#000000" d="M 991 304 L 991 301 M 991 301 A 8 8 0 0 1 999 293 L 1120 293 M 1120 293 A 8 8 0 0 0 1128 285 L 1128 253" stroke-miterlimit="10"/></g><g transform="translate(-10,-10) scale(1,1)"><path fill="#FFFFFF" stroke="none" d="M 1136.419035512032 273.3253497152483 L 1128 253 L 1119.580964487968 273.3253497152483"/></g><g transform="translate(-10,-10) scale(1,1)"><path fill="none" stroke="#000000" d="M 1136.419035512032 273.3253497152483 L 1128 253 L 1119.580964487968 273.3253497152483 L 1136.419035512032 273.3253497152483" stroke-miterlimit="10"/></g><g transform="translate(-10,-10) scale(1,1)"><rect fill="#C0C0C0" stroke="none" x="1106" y="311" width="115" height="44" opacity="0.2"/></g><g transform="translate(-10,-10) scale(1,1)"><rect fill="#ffffff" stroke="none" x="1099" y="304" width="115" height="44"/></g><g transform="translate(-10,-10) scale(1,1)"><path fill="none" stroke="#000000" d="M 1099 304 L 1214 304 L 1214 348 L 1099 348 L 1099 304 Z Z" stroke-miterlimit="10"/></g><g transform="translate(-10,-10) scale(1,1)"><path fill="none" stroke="#000000" d="M 1099 329 L 1214 329" stroke-miterlimit="10"/></g><g transform="translate(-10,-10) scale(1,1)"><path fill="none" stroke="#000000" d="M 1099 339 L 1214 339" stroke-miterlimit="10"/></g><g transform="translate(-10,-10) scale(1,1)"><g><path fill="none" stroke="none"/><text fill="#000000" stroke="none" font-family="Arial" font-size="13px" font-style="normal" font-weight="bold" text-decoration="none" x="1121.5" y="323.5">SqliteArticle</text></g></g><g transform="translate(-10,-10) scale(1,1)"><path fill="none" stroke="#000000" d="M 1160 304 L 1160 253" stroke-miterlimit="10"/></g><g transform="translate(-10,-10) scale(1,1)"><path fill="#FFFFFF" stroke="none" d="M 1168.419035512032 273.3253497152483 L 1160 253 L 1151.580964487968 273.3253497152483"/></g><g transform="translate(-10,-10) scale(1,1)"><path fill="none" stroke="#000000" d="M 1168.419035512032 273.3253497152483 L 1160 253 L 1151.580964487968 273.3253497152483 L 1168.419035512032 273.3253497152483" stroke-miterlimit="10"/></g><g transform="translate(-10,-10) scale(1,1)"><rect fill="#C0C0C0" stroke="none" x="76" y="209.5" width="50" height="44" opacity="0.2"/></g><g transform="translate(-10,-10) scale(1,1)"><rect fill="#ffffff" stroke="none" x="69" y="202.5" width="50" height="44"/></g><g transform="translate(-10,-10) scale(1,1)"><path fill="none" stroke="#000000" d="M 69 202.5 L 119 202.5 L 119 246.5 L 69 246.5 L 69 202.5 Z Z" stroke-miterlimit="10"/></g><g transform="translate(-10,-10) scale(1,1)"><path fill="none" stroke="#000000" d="M 69 227.5 L 119 227.5" stroke-miterlimit="10"/></g><g transform="translate(-10,-10) scale(1,1)"><path fill="none" stroke="#000000" d="M 69 237.5 L 119 237.5" stroke-miterlimit="10"/></g><g transform="translate(-10,-10) scale(1,1)"><g><path fill="none" stroke="none"/><text fill="#000000" stroke="none" font-family="Arial" font-size="13px" font-style="normal" font-weight="bold" text-decoration="none" x="75" y="222">Server</text></g></g><g transform="translate(-10,-10) scale(1,1)"><rect fill="#C0C0C0" stroke="none" x="57.5" y="291" width="87" height="44" opacity="0.2"/></g><g transform="translate(-10,-10) scale(1,1)"><rect fill="#ffffff" stroke="none" x="50.5" y="284" width="87" height="44"/></g><g transform="translate(-10,-10) scale(1,1)"><path fill="none" stroke="#000000" d="M 50.5 284 L 137.5 284 L 137.5 328 L 50.5 328 L 50.5 284 Z Z" stroke-miterlimit="10"/></g><g transform="translate(-10,-10) scale(1,1)"><path fill="none" stroke="#000000" d="M 50.5 309 L 137.5 309" stroke-miterlimit="10"/></g><g transform="translate(-10,-10) scale(1,1)"><path fill="none" stroke="#000000" d="M 50.5 319 L 137.5 319" stroke-miterlimit="10"/></g><g transform="translate(-10,-10) scale(1,1)"><g><path fill="none" stroke="none"/><text fill="#000000" stroke="none" font-family="Arial" font-size="13px" font-style="normal" font-weight="bold" text-decoration="none" x="61.5" y="303.5">Connection</text></g></g><g transform="translate(-10,-10) scale(1,1)"><path fill="none" stroke="#000000" d="M 96 203 L 96 136 L 183 136" stroke-miterlimit="10"/></g><g transform="translate(-10,-10) scale(1,1)"><path fill="#000000" stroke="none" d="M 172.83732514237585 140.209517756016 L 183 136 L 172.83732514237585 131.790482243984 L 161 136"/></g><g transform="translate(-10,-10) scale(1,1)"><path fill="none" stroke="#000000" d="M 172.83732514237585 140.209517756016 L 183 136 L 172.83732514237585 131.790482243984 L 161 136 L 172.83732514237585 140.209517756016" stroke-miterlimit="10"/></g><g transform="translate(-10,-10) scale(1,1)"><path fill="none" stroke="#000000" d="M 95 283 Q 95 269 95 248" stroke-miterlimit="10"/></g><g transform="translate(-10,-10) scale(1,1)"><path fill="#000000" stroke="none" d="M 99.20951775601598 258.16267485762415 L 95 248 L 90.79048224398402 258.16267485762415 L 95 270"/></g><g transform="translate(-10,-10) scale(1,1)"><path fill="none" stroke="#000000" d="M 99.20951775601598 258.16267485762415 L 95 248 L 90.79048224398402 258.16267485762415 L 95 270 L 99.20951775601598 258.16267485762415" stroke-miterlimit="10"/></g><g transform="translate(-10,-10) scale(1,1)"><g><path fill="none" stroke="none"/><text fill="#000000" stroke="none" font-family="Arial" font-size="13px" font-style="normal" font-weight="normal" text-decoration="none" x="40" y="275">+Connections</text></g></g><g transform="translate(-10,-10) scale(1,1)"><rect fill="#C0C0C0" stroke="none" x="159" y="247" width="111" height="44" opacity="0.2"/></g><g transform="translate(-10,-10) scale(1,1)"><rect fill="#ffffff" stroke="none" x="152" y="240" width="111" height="44"/></g><g transform="translate(-10,-10) scale(1,1)"><path fill="none" stroke="#000000" d="M 152 240 L 263 240 L 263 284 L 152 284 L 152 240 Z Z" stroke-miterlimit="10"/></g><g transform="translate(-10,-10) scale(1,1)"><path fill="none" stroke="#000000" d="M 152 265 L 263 265" stroke-miterlimit="10"/></g><g transform="translate(-10,-10) scale(1,1)"><path fill="none" stroke="#000000" d="M 152 275 L 263 275" stroke-miterlimit="10"/></g><g transform="translate(-10,-10) scale(1,1)"><g><path fill="none" stroke="none"/><text fill="#000000" stroke="none" font-family="Arial" font-size="13px" font-style="normal" font-weight="bold" text-decoration="none" x="159" y="259.5">MessageHandler</text></g></g><g transform="translate(-10,-10) scale(1,1)"><path fill="none" stroke="#000000" d="M 200 240 L 200 159" stroke-miterlimit="10"/></g><g transform="translate(-10,-10) scale(1,1)"><path fill="#000000" stroke="none" d="M 204.209517756016 169.16267485762415 L 200 159 L 195.790482243984 169.16267485762415 L 200 181"/></g><g transform="translate(-10,-10) scale(1,1)"><path fill="none" stroke="#000000" d="M 204.209517756016 169.16267485762415 L 200 159 L 195.790482243984 169.16267485762415 L 200 181 L 204.209517756016 169.16267485762415" stroke-miterlimit="10"/></g><g transform="translate(-10,-10) scale(1,1)"><g><path fill="none" stroke="none"/><text fill="#000000" stroke="none" font-family="Arial" font-size="13px" font-style="normal" font-weight="normal" text-decoration="none" x="163" y="205">+parser</text></g></g><g transform="translate(-10,-10) scale(1,1)"><rect fill="#C0C0C0" stroke="none" x="672.25" y="241.5" width="63" height="44" opacity="0.2"/></g><g transform="translate(-10,-10) scale(1,1)"><rect fill="#ffffff" stroke="none" x="665.25" y="234.5" width="63" height="44"/></g><g transform="translate(-10,-10) scale(1,1)"><path fill="none" stroke="#000000" d="M 665.25 234.5 L 728.25 234.5 L 728.25 278.5 L 665.25 278.5 L 665.25 234.5 Z Z" stroke-miterlimit="10"/></g><g transform="translate(-10,-10) scale(1,1)"><path fill="none" stroke="#000000" d="M 665.25 259.5 L 728.25 259.5" stroke-miterlimit="10"/></g><g transform="translate(-10,-10) scale(1,1)"><path fill="none" stroke="#000000" d="M 665.25 269.5 L 728.25 269.5" stroke-miterlimit="10"/></g><g transform="translate(-10,-10) scale(1,1)"><g><path fill="none" stroke="none"/><text fill="#000000" stroke="none" font-family="Arial" font-size="13px" font-style="normal" font-weight="bold" text-decoration="none" x="670.25" y="254">Message</text></g></g><g transform="translate(-10,-10) scale(1,1)"><rect fill="#C0C0C0" stroke="none" x="652.25" y="323" width="103" height="57" opacity="0.2"/></g><g transform="translate(-10,-10) scale(1,1)"><rect fill="#ffffff" stroke="none" x="645.25" y="316" width="103" height="57"/></g><g transform="translate(-10,-10) scale(1,1)"><path fill="none" stroke="#000000" d="M 645.25 316 L 748.25 316 L 748.25 373 L 645.25 373 L 645.25 316 Z Z" stroke-miterlimit="10"/></g><g transform="translate(-10,-10) scale(1,1)"><path fill="none" stroke="#000000" d="M 645.25 354 L 748.25 354" stroke-miterlimit="10"/></g><g transform="translate(-10,-10) scale(1,1)"><path fill="none" stroke="#000000" d="M 645.25 364 L 748.25 364" stroke-miterlimit="10"/></g><g transform="translate(-10,-10) scale(1,1)"><g><path fill="none" stroke="none"/><text fill="#000000" stroke="none" font-family="Arial" font-size="13px" font-style="normal" font-weight="normal" text-decoration="none" x="673.25" y="333.5">«struct»</text></g></g><g transform="translate(-10,-10) scale(1,1)"><g><path fill="none" stroke="none"/><text fill="#000000" stroke="none" font-family="Arial" font-size="13px" font-style="normal" font-weight="bold" text-decoration="none" x="651.25" y="348.5">MessageParam</text></g></g><g transform="translate(-10,-10) scale(1,1)"><path fill="none" stroke="#000000" d="M 697 315 Q 697 301 697 280" stroke-miterlimit="10"/></g><g transform="translate(-10,-10) scale(1,1)"><path fill="#000000" stroke="none" d="M 701.209517756016 290.16267485762415 L 697 280 L 692.790482243984 290.16267485762415 L 697 302"/></g><g transform="translate(-10,-10) scale(1,1)"><path fill="none" stroke="#000000" d="M 701.209517756016 290.16267485762415 L 697 280 L 692.790482243984 290.16267485762415 L 697 302 L 701.209517756016 290.16267485762415" stroke-miterlimit="10"/></g><g transform="translate(-10,-10) scale(1,1)"><rect fill="#C0C0C0" stroke="none" x="295" y="415" width="112" height="44" opacity="0.2"/></g><g transform="translate(-10,-10) scale(1,1)"><rect fill="#ffffff" stroke="none" x="288" y="408" width="112" height="44"/></g><g transform="translate(-10,-10) scale(1,1)"><path fill="none" stroke="#000000" d="M 288 408 L 400 408 L 400 452 L 288 452 L 288 408 Z Z" stroke-miterlimit="10"/></g><g transform="translate(-10,-10) scale(1,1)"><path fill="none" stroke="#000000" d="M 288 433 L 400 433" stroke-miterlimit="10"/></g><g transform="translate(-10,-10) scale(1,1)"><path fill="none" stroke="#000000" d="M 288 443 L 400 443" stroke-miterlimit="10"/></g><g transform="translate(-10,-10) scale(1,1)"><g><path fill="none" stroke="none"/><text fill="#000000" stroke="none" font-family="Arial" font-size="13px" font-style="normal" font-weight="bold" text-decoration="none" x="294" y="427.5">RemoteDatabase</text></g></g><g transform="translate(-10,-10) scale(1,1)"><path fill="none" stroke="#000000" d="M 400 430 L 616 430 M 616 430 A 8 8 0 0 0 624 422 L 624 77" stroke-miterlimit="10"/></g><g transform="translate(-10,-10) scale(1,1)"><path fill="#FFFFFF" stroke="none" d="M 632.419035512032 97.32534971524831 L 624 77 L 615.580964487968 97.32534971524831"/></g><g transform="translate(-10,-10) scale(1,1)"><path fill="none" stroke="#000000" d="M 632.419035512032 97.32534971524831 L 624 77 L 615.580964487968 97.32534971524831 L 632.419035512032 97.32534971524831" stroke-miterlimit="10"/></g><g transform="translate(-10,-10) scale(1,1)"><rect fill="#C0C0C0" stroke="none" x="973.25" y="209.5" width="126" height="44" opacity="0.2"/></g><g transform="translate(-10,-10) scale(1,1)"><rect fill="#ffffff" stroke="none" x="966.25" y="202.5" width="126" height="44"/></g><g transform="translate(-10,-10) scale(1,1)"><path fill="none" stroke="#000000" d="M 966.25 202.5 L 1092.25 202.5 L 1092.25 246.5 L 966.25 246.5 L 966.25 202.5 Z Z" stroke-miterlimit="10"/></g><g transform="translate(-10,-10) scale(1,1)"><path fill="none" stroke="#000000" d="M 966.25 227.5 L 1092.25 227.5" stroke-miterlimit="10"/></g><g transform="translate(-10,-10) scale(1,1)"><path fill="none" stroke="#000000" d="M 966.25 237.5 L 1092.25 237.5" stroke-miterlimit="10"/></g><g transform="translate(-10,-10) scale(1,1)"><g><path fill="none" stroke="none"/><text fill="#000000" stroke="none" font-family="Arial" font-size="13px" font-style="normal" font-weight="bold" text-decoration="none" x="974.75" y="222">RemoteNewsgroup</text></g></g><g transform="translate(-10,-10) scale(1,1)"><path fill="none" stroke="#000000" d="M 1030 203 L 1030 189 M 1030 189 A 8 8 0 0 0 1022 181 L 950 181 M 950 181 A 8 8 0 0 1 942 173 L 942 165" stroke-miterlimit="10"/></g><g transform="translate(-10,-10) scale(1,1)"><path fill="#FFFFFF" stroke="none" d="M 950.419035512032 185.3253497152483 L 942 165 L 933.580964487968 185.3253497152483"/></g><g transform="translate(-10,-10) scale(1,1)"><path fill="none" stroke="#000000" d="M 950.419035512032 185.3253497152483 L 942 165 L 933.580964487968 185.3253497152483 L 950.419035512032 185.3253497152483" stroke-miterlimit="10"/></g><g transform="translate(-10,-10) scale(1,1)"><path fill="none" stroke="#000000" d="M 944 108 L 944 72 M 944 72 A 8 8 0 0 0 936 64 L 674 64" stroke-miterlimit="10"/></g><g transform="translate(-10,-10) scale(1,1)"><path fill="#000000" stroke="none" d="M 684.1626748576241 59.790482243984016 L 674 64 L 684.1626748576241 68.20951775601598 L 696 64"/></g><g transform="translate(-10,-10) scale(1,1)"><path fill="none" stroke="#000000" d="M 684.1626748576241 59.790482243984016 L 674 64 L 684.1626748576241 68.20951775601598 L 696 64 L 684.1626748576241 59.790482243984016" stroke-miterlimit="10"/></g><g transform="translate(-10,-10) scale(1,1)"><path fill="none" stroke="#000000" d="M 1134 196 L 1134 136 M 1134 136 A 8 8 0 0 0 1126 128 L 984 128" stroke-miterlimit="10"/></g><g transform="translate(-10,-10) scale(1,1)"><path fill="#000000" stroke="none" d="M 994.1626748576241 123.79048224398402 L 984 128 L 994.1626748576241 132.209517756016 L 1006 128"/></g><g transform="translate(-10,-10) scale(1,1)"><path fill="none" stroke="#000000" d="M 994.1626748576241 123.79048224398402 L 984 128 L 994.1626748576241 132.209517756016 L 1006 128 L 994.1626748576241 123.79048224398402" stroke-miterlimit="10"/></g><g transform="translate(-10,-10) scale(1,1)"><path fill="none" stroke="#000000" d="M 1175 196 L 1175 48 M 1175 48 A 8 8 0 0 0 1167 40 L 674 40" stroke-miterlimit="10"/></g><g transform="translate(-10,-10) scale(1,1)"><path fill="#000000" stroke="none" d="M 684.1626748576241 35.790482243984016 L 674 40 L 684.1626748576241 44.209517756015984 L 696 40"/></g><g transform="translate(-10,-10) scale(1,1)"><path fill="none" stroke="#000000" d="M 684.1626748576241 35.790482243984016 L 674 40 L 684.1626748576241 44.209517756015984 L 696 40 L 684.1626748576241 35.790482243984016" stroke-miterlimit="10"/></g><g transform="translate(-10,-10) scale(1,1)"><rect fill="#C0C0C0" stroke="none" x="1239" y="311" width="96" height="44" opacity="0.2"/></g><g transform="translate(-10,-10) scale(1,1)"><rect fill="#ffffff" stroke="none" x="1232" y="304" width="96" height="44"/></g><g transform="translate(-10,-10) scale(1,1)"><path fill="none" stroke="#000000" d="M 1232 304 L 1328 304 L 1328 348 L 1232 348 L 1232 304 Z Z" stroke-miterlimit="10"/></g><g transform="translate(-10,-10) scale(1,1)"><path fill="none" stroke="#000000" d="M 1232 329 L 1328 329" stroke-miterlimit="10"/></g><g transform="translate(-10,-10) scale(1,1)"><path fill="none" stroke="#000000" d="M 1232 339 L 1328 339" stroke-miterlimit="10"/></g><g transform="translate(-10,-10) scale(1,1)"><g><path fill="none" stroke="none"/><text fill="#000000" stroke="none" font-family="Arial" font-size="13px" font-style="normal" font-weight="bold" text-decoration="none" x="1239" y="323.5">RemoteArticle</text></g></g><g transform="translate(-10,-10) scale(1,1)"><path fill="none" stroke="#000000" d="M 1294 304 L 1294 301 M 1294 301 A 8 8 0 0 0 1286 293 L 1192 293 M 1192 293 A 8 8 0 0 1 1184 285 L 1184 253" stroke-miterlimit="10"/></g><g transform="translate(-10,-10) scale(1,1)"><path fill="#FFFFFF" stroke="none" d="M 1192.419035512032 273.3253497152483 L 1184 253 L 1175.580964487968 273.3253497152483"/></g><g transform="translate(-10,-10) scale(1,1)"><path fill="none" stroke="#000000" d="M 1192.419035512032 273.3253497152483 L 1184 253 L 1175.580964487968 273.3253497152483 L 1192.419035512032 273.3253497152483" stroke-miterlimit="10"/></g><g transform="translate(-10,-10) scale(1,1)"><rect fill="#C0C0C0" stroke="none" x="27" y="366" width="148" height="44" opacity="0.2"/></g><g transform="translate(-10,-10) scale(1,1)"><rect fill="#ffffff" stroke="none" x="20" y="359" width="148" height="44"/></g><g transform="translate(-10,-10) scale(1,1)"><path fill="none" stroke="#000000" d="M 20 359 L 168 359 L 168 403 L 20 403 L 20 359 Z Z" stroke-miterlimit="10"/></g><g transform="translate(-10,-10) scale(1,1)"><path fill="none" stroke="#000000" d="M 20 384 L 168 384" stroke-miterlimit="10"/></g><g transform="translate(-10,-10) scale(1,1)"><path fill="none" stroke="#000000" d="M 20 394 L 168 394" stroke-miterlimit="10"/></g><g transform="translate(-10,-10) scale(1,1)"><g><path fill="none" stroke="none"/><text fill="#000000" stroke="none" font-family="Arial" font-size="13px" font-style="normal" font-weight="bold" text-decoration="none" x="30" y="378.5">ServerCommunication</text></g></g><g transform="translate(-10,-10) scale(1,1)"><rect fill="#C0C0C0" stroke="none" x="175" y="479" width="50" height="44" opacity="0.2"/></g><g transform="translate(-10,-10) scale(1,1)"><rect fill="#ffffff" stroke="none" x="168" y="472" width="50" height="44"/></g><g transform="translate(-10,-10) scale(1,1)"><path fill="none" stroke="#000000" d="M 168 472 L 218 472 L 218 516 L 168 516 L 168 472 Z Z" stroke-miterlimit="10"/></g><g transform="translate(-10,-10) scale(1,1)"><path fill="none" stroke="#000000" d="M 168 497 L 218 497" stroke-miterlimit="10"/></g><g transform="translate(-10,-10) scale(1,1)"><path fill="none" stroke="#000000" d="M 168 507 L 218 507" stroke-miterlimit="10"/></g><g transform="translate(-10,-10) scale(1,1)"><g><path fill="none" stroke="none"/><text fill="#000000" stroke="none" font-family="Arial" font-size="13px" font-style="normal" font-weight="bold" text-decoration="none" x="176.5" y="491.5">Client</text></g></g><g transform="translate(-10,-10) scale(1,1)"><rect fill="#C0C0C0" stroke="none" x="317.5" y="209.5" width="99" height="44" opacity="0.2"/></g><g transform="translate(-10,-10) scale(1,1)"><rect fill="#ffffff" stroke="none" x="310.5" y="202.5" width="99" height="44"/></g><g transform="translate(-10,-10) scale(1,1)"><path fill="none" stroke="#000000" d="M 310.5 202.5 L 409.5 202.5 L 409.5 246.5 L 310.5 246.5 L 310.5 202.5 Z Z" stroke-miterlimit="10"/></g><g transform="translate(-10,-10) scale(1,1)"><path fill="none" stroke="#000000" d="M 310.5 227.5 L 409.5 227.5" stroke-miterlimit="10"/></g><g transform="translate(-10,-10) scale(1,1)"><path fill="none" stroke="#000000" d="M 310.5 237.5 L 409.5 237.5" stroke-miterlimit="10"/></g><g transform="translate(-10,-10) scale(1,1)"><g><path fill="none" stroke="none"/><text fill="#000000" stroke="none" font-family="Arial" font-size="13px" font-style="normal" font-weight="bold" text-decoration="none" x="317.5" y="222">MemoryServer</text></g></g><g transform="translate(-10,-10) scale(1,1)"><rect fill="#C0C0C0" stroke="none" x="463" y="263" width="85" height="44" opacity="0.2"/></g><g transform="translate(-10,-10) scale(1,1)"><rect fill="#ffffff" stroke="none" x="456" y="256" width="85" height="44"/></g><g transform="translate(-10,-10) scale(1,1)"><path fill="none" stroke="#000000" d="M 456 256 L 541 256 L 541 300 L 456 300 L 456 256 Z Z" stroke-miterlimit="10"/></g><g transform="translate(-10,-10) scale(1,1)"><path fill="none" stroke="#000000" d="M 456 281 L 541 281" stroke-miterlimit="10"/></g><g transform="translate(-10,-10) scale(1,1)"><path fill="none" stroke="#000000" d="M 456 291 L 541 291" stroke-miterlimit="10"/></g><g transform="translate(-10,-10) scale(1,1)"><g><path fill="none" stroke="none"/><text fill="#000000" stroke="none" font-family="Arial" font-size="13px" font-style="normal" font-weight="bold" text-decoration="none" x="463" y="275.5">SqliteServer</text></g></g><g transform="translate(-10,-10) scale(1,1)"><path fill="none" stroke="#000000" d="M 328 203 L 328 152 M 328 152 A 8 8 0 0 0 320 144 L 265 144" stroke-miterlimit="10"/></g><g transform="translate(-10,-10) scale(1,1)"><path fill="#000000" stroke="none" d="M 275.16267485762415 139.790482243984 L 265 144 L 275.16267485762415 148.209517756016 L 287 144"/></g><g transform="translate(-10,-10) scale(1,1)"><path fill="none" stroke="#000000" d="M 275.16267485762415 139.790482243984 L 265 144 L 275.16267485762415 148.209517756016 L 287 144 L 275.16267485762415 139.790482243984" stroke-miterlimit="10"/></g><g transform="translate(-10,-10) scale(1,1)"><path fill="none" stroke="#000000" d="M 456 280 L 288 280 M 288 280 A 8 8 0 0 1 280 272 L 280 208 M 280 208 A 8 8 0 0 0 272 200 L 240 200 M 240 200 A 8 8 0 0 1 232 192 L 232 159" stroke-miterlimit="10"/></g><g transform="translate(-10,-10) scale(1,1)"><path fill="#000000" stroke="none" d="M 236.209517756016 169.16267485762415 L 232 159 L 227.790482243984 169.16267485762415 L 232 181"/></g><g transform="translate(-10,-10) scale(1,1)"><path fill="none" stroke="#000000" d="M 236.209517756016 169.16267485762415 L 232 159 L 227.790482243984 169.16267485762415 L 232 181 L 236.209517756016 169.16267485762415" stroke-miterlimit="10"/></g><g transform="translate(-10,-10) scale(1,1)"><path fill="none" stroke="#000000" d="M 383 203 L 383 132" stroke-miterlimit="10"/></g><g transform="translate(-10,-10) scale(1,1)"><path fill="#000000" stroke="none" d="M 387.209517756016 142.16267485762415 L 383 132 L 378.790482243984 142.16267485762415 L 383 154"/></g><g transform="translate(-10,-10) scale(1,1)"><path fill="none" stroke="#000000" d="M 387.209517756016 142.16267485762415 L 383 132 L 378.790482243984 142.16267485762415 L 383 154 L 387.209517756016 142.16267485762415" stroke-miterlimit="10"/></g><g transform="translate(-10,-10) scale(1,1)"><path fill="none" stroke="#000000" d="M 538 256 L 538 172" stroke-miterlimit="10"/></g><g transform="translate(-10,-10) scale(1,1)"><path fill="#000000" stroke="none" d="M 542.209517756016 182.16267485762415 L 538 172 L 533.790482243984 182.16267485762415 L 538 194"/></g><g transform="translate(-10,-10) scale(1,1)"><path fill="none" stroke="#000000" d="M 542.209517756016 182.16267485762415 L 538 172 L 533.790482243984 182.16267485762415 L 538 194 L 542.209517756016 182.16267485762415" stroke-miterlimit="10"/></g><g transform="translate(-10,-10) scale(1,1)"><path fill="none" stroke="#000000" d="M 94 403 L 94 422 M 94 422 A 8 8 0 0 0 102 430 L 288 430" stroke-miterlimit="10"/></g><g transform="translate(-10,-10) scale(1,1)"><path fill="#FFFFFF" stroke="none" d="M 277.83732514237585 434.209517756016 L 288 430 L 277.83732514237585 425.790482243984 L 266 430"/></g><g transform="translate(-10,-10) scale(1,1)"><path fill="none" stroke="#000000" d="M 277.83732514237585 434.209517756016 L 288 430 L 277.83732514237585 425.790482243984 L 266 430 L 277.83732514237585 434.209517756016" stroke-miterlimit="10"/></g><g transform="translate(-10,-10) scale(1,1)"><path fill="none" stroke="#000000" d="M 48 403 L 48 486 M 48 486 A 8 8 0 0 0 56 494 L 168 494" stroke-miterlimit="10"/></g><g transform="translate(-10,-10) scale(1,1)"><path fill="#000000" stroke="none" d="M 157.83732514237585 498.209517756016 L 168 494 L 157.83732514237585 489.790482243984 L 146 494"/></g><g transform="translate(-10,-10) scale(1,1)"><path fill="none" stroke="#000000" d="M 157.83732514237585 498.209517756016 L 168 494 L 157.83732514237585 489.790482243984 L 146 494 L 157.83732514237585 498.209517756016" stroke-miterlimit="10"/></g><g transform="translate(-10,-10) scale(1,1)"><path fill="none" stroke="#000000" d="M 94 329 L 94 358" stroke-miterlimit="10"/></g><g transform="translate(-10,-10) scale(1,1)"><path fill="#000000" stroke="none" d="M 89.79048224398402 347.83732514237585 L 94 358 L 98.20951775601598 347.83732514237585 L 94 336"/></g><g transform="translate(-10,-10) scale(1,1)"><path fill="none" stroke="#000000" d="M 89.79048224398402 347.83732514237585 L 94 358 L 98.20951775601598 347.83732514237585 L 94 336 L 89.79048224398402 347.83732514237585" stroke-miterlimit="10"/></g><g transform="translate(-10,-10) scale(1,1)"><path fill="none" stroke="#000000" d="M 379 452 L 379 486 M 379 486 A 8 8 0 0 1 371 494 L 218 494" stroke-miterlimit="10"/></g><g transform="translate(-10,-10) scale(1,1)"><path fill="#000000" stroke="none" d="M 228.16267485762415 489.790482243984 L 218 494 L 228.16267485762415 498.209517756016 L 240 494"/></g><g transform="translate(-10,-10) scale(1,1)"><path fill="none" stroke="#000000" d="M 228.16267485762415 489.790482243984 L 218 494 L 228.16267485762415 498.209517756016 L 240 494 L 228.16267485762415 489.790482243984" stroke-miterlimit="10"/></g><g transform="translate(-10,-10) scale(1,1)"><path fill="none" stroke="#000000" d="M 571 40 L 232 40 M 232 40 A 8 8 0 0 0 224 48 L 224 115" stroke-miterlimit="10"/></g><g transform="translate(-10,-10) scale(1,1)"><path fill="#FFFFFF" stroke="none" d="M 219.790482243984 104.83732514237585 L 224 115 L 228.209517756016 104.83732514237585 L 224 93"/></g><g transform="translate(-10,-10) scale(1,1)"><path fill="none" stroke="#000000" d="M 219.790482243984 104.83732514237585 L 224 115 L 228.209517756016 104.83732514237585 L 224 93 L 219.790482243984 104.83732514237585" stroke-miterlimit="10"/></g></g></svg>